# xmcd CD database file
#
# Track frame offsets:
#	150
#	26462
#	39277
#	51966
#	67079
#	81049
#
# Disc length: 1232 seconds
#
# Revision: 6
# Processed by: cddbd v1.5.2PL0 Copyright (c) Steve Scherf et al.
# Submitted via: CDex 1.70beta2
#
DISCID=4504ce06
DTITLE=Aviador Dro us Mystechs - El Combate del Siglo
DYEAR=2006
DGENRE=New Age
TTITLE0=Aviador Dro "Camarada Bakunin 07"
TTITLE1=Mystechs "Shake What Darwin Gave 'Ya"
TTITLE2=Aviador Dro "Local 15, Visitante 0" (Decibelios)
TTITLE3=Mystechs "Robot Jerks from the Planet F*** You"
TTITLE4=Aviador Dro "Laser 07"
TTITLE5=Mystechs "Lick the power"
EXTD=YEAR: 2006
EXTT0=
EXTT1=
EXTT2=
EXTT3=
EXTT4=
EXTT5=
PLAYORDER=
